# xmcd
#
# Track frame offsets:
# 150
# 11129
# 21409
# 29996
# 33399
# 37254
# 50897
# 55648
# 76678
#
# Disc length: 1170 seconds
#
#
# Revision: 0
# Processed by: cddbd v1.5.2PL0 Copyright (c) Steve Scherf et al.
# Submitted via: FreeRIP 2.945 
#
DISCID=79049009
DTITLE=Extreme Noise Terror - No Sense Benny
DYEAR=0666
DGENRE=Grind Core
TTITLE0=When Gods Burn
TTITLE1=Self Decay
TTITLE2=Another Nail in the Coffin
TTITLE3=Damage 381
TTITLE4=Dead Life
TTITLE5=Downside
TTITLE6=Fucked up System
TTITLE7=I am a Bloody Fool - In it for Life
TTITLE8=Pray to be Saved
EXTD=
EXTT0=
EXTT1=
EXTT2=
EXTT3=
EXTT4=
EXTT5=
EXTT6=
EXTT7=
EXTT8=
PLAYORDER=
